; Drill file
; Format: 3.3 (000.000)
M48
METRIC
T01C0.9
%
G05
G90
T01
X022860Y002700
X025400Y002700
X027940Y002700
X030480Y002700
X033020Y002700
X035560Y002700
X040640Y002700
X043180Y002700
X045720Y002700
X048260Y002700
X050800Y002700
X053340Y002700
X053340Y050960
X050800Y050960
X048260Y050960
X045720Y050960
X043180Y050960
X040640Y050960
X038100Y050960
X035560Y050960
X031750Y050960
X029210Y050960
X026670Y050960
X024130Y050960
X021590Y050960
X019050Y050960
X016510Y050960
X013970Y050960
M30
